<svg width="275" height="58" viewBox="0 0 275 58" fill="none" xmlns="http://www.w3.org/2000/svg">
<path d="M22.448 0.0879974C26.0107 0.0879974 29.2 0.802664 32.016 2.232C34.832 3.64 37.104 5.592 38.832 8.088C40.56 10.5627 41.5947 13.3893 41.936 16.568H30.512C30.128 14.2853 29.2213 12.44 27.792 11.032C26.384 9.624 24.4853 8.92 22.096 8.92C20.24 8.92 18.6187 9.38933 17.232 10.328C15.8453 11.2667 14.768 12.8027 14 14.936C13.2533 17.0693 12.88 19.928 12.88 23.512C12.88 28.9733 13.712 32.888 15.376 35.256C17.0613 37.624 19.3013 38.808 22.096 38.808C24.4853 38.808 26.384 37.976 27.792 36.312C29.2213 34.6267 30.128 32.6427 30.512 30.36H41.936C41.6373 32.664 41.0933 34.8507 40.304 36.92C39.536 38.9893 38.416 40.8347 36.944 42.456C35.472 44.056 33.552 45.3253 31.184 46.264C28.8373 47.1813 25.9253 47.64 22.448 47.64C18.0533 47.64 14.2453 46.616 11.024 44.568C7.80267 42.4987 5.30667 39.64 3.536 35.992C1.76533 32.344 0.88 28.1307 0.88 23.352C0.88 18.5947 1.75467 14.4773 3.504 11C5.25333 7.50133 7.73867 4.81333 10.96 2.936C14.2027 1.03733 18.032 0.0879974 22.448 0.0879974ZM111.804 57.304V13.912H122.716L122.748 18.2C123.878 16.6 125.35 15.384 127.164 14.552C128.977 13.6987 130.833 13.272 132.732 13.272C135.121 13.272 137.254 13.88 139.132 15.096C141.009 16.312 142.492 18.1787 143.58 20.696C144.668 23.2133 145.212 26.4027 145.212 30.264C145.212 34.3813 144.593 37.72 143.356 40.28C142.118 42.8187 140.465 44.6853 138.396 45.88C136.348 47.0533 134.086 47.64 131.612 47.64C129.862 47.64 128.188 47.192 126.588 46.296C124.988 45.4 123.686 44.1307 122.684 42.488V57.304H111.804ZM128.86 39.768C130.545 39.768 131.996 39.0213 133.212 37.528C134.449 36.0347 135.068 33.6347 135.068 30.328C135.068 27.384 134.47 25.1013 133.276 23.48C132.102 21.8587 130.63 21.048 128.86 21.048C126.726 21.048 125.158 21.9547 124.156 23.768C123.174 25.56 122.684 27.7467 122.684 30.328C122.684 31.928 122.897 33.4533 123.324 34.904C123.772 36.3333 124.444 37.5067 125.34 38.424C126.257 39.32 127.43 39.768 128.86 39.768ZM214.991 47V13.912H225.487V22.392C226.255 19.8107 227.535 17.6453 229.327 15.896C231.119 14.1467 233.434 13.272 236.271 13.272C236.804 13.272 237.124 13.304 237.231 13.368V23.704C237.124 23.6613 236.986 23.6293 236.815 23.608C236.666 23.5867 236.506 23.576 236.335 23.576C233.562 23.2987 231.418 23.4373 229.903 23.992C228.388 24.5253 227.332 25.336 226.735 26.424C226.159 27.4907 225.871 28.6853 225.871 30.008V47H214.991Z" fill="#4285F4"/>
<path d="M48.4285 47V13.912H58.9245V22.392C59.6925 19.8107 60.9725 17.6453 62.7645 15.896C64.5565 14.1467 66.8712 13.272 69.7085 13.272C70.2418 13.272 70.5618 13.304 70.6685 13.368V23.704C70.5618 23.6613 70.4232 23.6293 70.2525 23.608C70.1032 23.5867 69.9432 23.576 69.7725 23.576C66.9992 23.2987 64.8552 23.4373 63.3405 23.992C61.8258 24.5253 60.7698 25.336 60.1725 26.424C59.5965 27.4907 59.3085 28.6853 59.3085 30.008V47H48.4285ZM193.054 47.64C189.705 47.64 186.803 46.936 184.35 45.528C181.897 44.0987 179.998 42.1147 178.654 39.576C177.31 37.0373 176.638 34.0613 176.638 30.648C176.638 27.192 177.321 24.1627 178.686 21.56C180.073 18.936 181.993 16.8987 184.446 15.448C186.921 13.9973 189.801 13.272 193.086 13.272C196.435 13.272 199.337 14.008 201.79 15.48C204.243 16.9307 206.131 18.968 207.454 21.592C208.777 24.1947 209.438 27.2133 209.438 30.648C209.438 33.9547 208.777 36.888 207.454 39.448C206.153 42.008 204.275 44.0133 201.822 45.464C199.369 46.9147 196.446 47.64 193.054 47.64ZM193.086 39.64C194.558 39.64 195.71 39.1813 196.542 38.264C197.395 37.3253 197.993 36.1413 198.334 34.712C198.675 33.2613 198.846 31.7893 198.846 30.296C198.846 28.824 198.686 27.3947 198.366 26.008C198.046 24.6 197.47 23.4373 196.638 22.52C195.806 21.6027 194.622 21.144 193.086 21.144C191.593 21.144 190.419 21.592 189.566 22.488C188.734 23.3627 188.137 24.504 187.774 25.912C187.433 27.2987 187.262 28.76 187.262 30.296C187.262 31.7467 187.422 33.1973 187.742 34.648C188.083 36.0773 188.67 37.272 189.502 38.232C190.355 39.1707 191.55 39.64 193.086 39.64ZM247.57 57.56C245.159 57.56 243.431 57.3467 242.386 56.92C241.362 56.4933 240.85 56.28 240.85 56.28V49.368L244.082 49.528C246.13 49.6773 247.623 49.5493 248.562 49.144C249.5 48.7387 250.108 48.2693 250.386 47.736C250.684 47.2027 250.876 46.8187 250.962 46.584L251.346 45.336L238.482 13.912H249.234L256.338 33.688L263.57 13.912H274.258L261.074 46.136C259.794 49.272 258.45 51.6613 257.042 53.304C255.655 54.9467 254.172 56.0667 252.594 56.664C251.036 57.2613 249.362 57.56 247.57 57.56Z" fill="#EA4335"/>
<path d="M81.007 57.56C78.5963 57.56 76.8683 57.3467 75.823 56.92C74.799 56.4933 74.287 56.28 74.287 56.28V49.368L77.519 49.528C79.567 49.6773 81.0603 49.5493 81.999 49.144C82.9377 48.7387 83.5457 48.2693 83.823 47.736C84.1217 47.2027 84.3137 46.8187 84.399 46.584L84.783 45.336L71.919 13.912H82.671L89.775 33.688L97.007 13.912H107.695L94.511 46.136C93.231 49.272 91.887 51.6613 90.479 53.304C89.0923 54.9467 87.6097 56.0667 86.031 56.664C84.4737 57.2613 82.799 57.56 81.007 57.56Z" fill="#FBBC05"/>
<path d="M172.181 21.368H164.917L164.949 37.688C164.949 38.6693 165.162 39.2987 165.589 39.576C166.037 39.832 166.656 39.96 167.445 39.96H172.245V46.52C171.797 46.7333 171.104 46.936 170.165 47.128C169.226 47.32 167.85 47.416 166.037 47.416C162.858 47.416 160.394 47.0213 158.645 46.232C156.917 45.4213 155.712 44.3227 155.029 42.936C154.368 41.528 154.037 39.9387 154.037 38.168V21.368H148.661V13.912H154.421L157.205 3.768H164.917V13.848H172.181V21.368Z" fill="#34A853"/>
</svg>
